<?xml version="1.0" encoding="UTF-8"?>
<svg xmlns="http://www.w3.org/2000/svg" viewBox="0 0 800 600" width="800" height="600">
  <defs>
    <linearGradient id="bgGrad" x1="0%" y1="0%" x2="0%" y2="100%">
      <stop offset="0%" stop-color="#fffae0" />
      <stop offset="100%" stop-color="#fef08a" />
    </linearGradient>
    <filter id="paperTexture" x="0%" y="0%" width="100%" height="100%">
      <feTurbulence type="fractalNoise" baseFrequency="0.04" numOctaves="3" result="noise" />
      <feColorMatrix type="matrix" values="1 0 0 0 0  0 1 0 0 0  0 0 1 0 0  0 0 0 0.08 0" in="noise" result="coloredNoise" />
      <feComposite operator="in" in2="SourceGraphic" />
    </filter>
  </defs>

  <!-- Nền Gradient Mỹ Thuật -->
  <rect width="800" height="600" fill="url(#bgGrad)" />

  <!-- Yếu tố Minh Họa Trung Tâm -->
  
        <!-- Đoàn tàu hỏa hơi nước chạy qua cánh đồng -->
        <g transform="translate(400, 360)">
          <!-- Đường ray sắt -->
          <line x1="-380" y1="120" x2="380" y2="120" stroke="#495057" stroke-width="12"/>
          <line x1="-380" y1="140" x2="380" y2="140" stroke="#495057" stroke-width="8"/>
          <!-- Toa đầu tàu đen bóng -->
          <rect x="-180" y="-40" width="220" height="130" rx="15" fill="#212529" stroke="#343a40" stroke-width="5"/>
          <rect x="-50" y="-110" width="130" height="140" rx="10" fill="#1d3557" stroke="#457b9d" stroke-width="4"/>
          <!-- Cửa sổ toa lái -->
          <rect x="-30" y="-90" width="40" height="45" rx="5" fill="#f1faee"/>
          <rect x="25" y="-90" width="40" height="45" rx="5" fill="#f1faee"/>
          <!-- Ống khói và khói cuồn cuộn -->
          <rect x="-150" y="-95" width="35" height="60" fill="#e63946"/>
          <circle cx="-135" cy="-130" r="30" fill="#f8f9fa" opacity="0.9"/>
          <circle cx="-180" cy="-170" r="45" fill="#e9ecef" opacity="0.8"/>
          <circle cx="-240" cy="-210" r="60" fill="#dee2e6" opacity="0.7"/>
          <!-- Đèn pha vàng rực -->
          <polygon points="-180,20 -360,-20 -360,70" fill="#ffbe0b" opacity="0.4"/>
          <circle cx="-180" cy="25" r="16" fill="#ffbe0b"/>
          <!-- Bánh xe sắt lớn nhỏ -->
          <circle cx="-130" cy="115" r="35" fill="#e63946" stroke="#212529" stroke-width="6"/>
          <circle cx="-40" cy="115" r="35" fill="#e63946" stroke="#212529" stroke-width="6"/>
          <circle cx="45" cy="115" r="35" fill="#e63946" stroke="#212529" stroke-width="6"/>
        </g>
      

  <!-- Lớp phủ chất liệu giấy mỹ thuật thủ công -->
  <rect width="800" height="600" fill="#ffffff" opacity="0.05" filter="url(#paperTexture)" pointer-events="none" />

  <!-- Khung viền tranh Ehon cổ điển -->
  <rect x="16" y="16" width="768" height="568" rx="20" fill="none" stroke="#e2e8f0" stroke-width="4" opacity="0.8" />

  <!-- Bảng Thông Tin Tác Phẩm & Phân Cảnh Trang Nhã Ở Đáy Tranh -->
  <g transform="translate(400, 545)">
    <rect x="-320" y="-22" width="640" height="44" rx="22" fill="rgba(255, 255, 255, 0.92)" stroke="#cbd5e1" stroke-width="2" />
    <text x="0" y="4" font-size="16" font-weight="bold" fill="#1e293b" text-anchor="middle" font-family="'Zen Maru Gothic', 'Hiragino Sans', 'Meiryo', sans-serif">
      しんかんせんでいこう (Chuyến Du Hành Shinkansen) — Bìa Tác Phẩm (Cover)
    </text>
  </g>
</svg>