<?xml version="1.0" encoding="UTF-8"?>
<svg xmlns="http://www.w3.org/2000/svg" viewBox="0 0 800 600" width="800" height="600">
  <defs>
    <linearGradient id="bgGrad" x1="0%" y1="0%" x2="0%" y2="100%">
      <stop offset="0%" stop-color="#03071e" />
      <stop offset="100%" stop-color="#1d3557" />
    </linearGradient>
    <filter id="paperTexture" x="0%" y="0%" width="100%" height="100%">
      <feTurbulence type="fractalNoise" baseFrequency="0.04" numOctaves="3" result="noise" />
      <feColorMatrix type="matrix" values="1 0 0 0 0  0 1 0 0 0  0 0 1 0 0  0 0 0 0.08 0" in="noise" result="coloredNoise" />
      <feComposite operator="in" in2="SourceGraphic" />
    </filter>
  </defs>

  <!-- Nền Gradient Mỹ Thuật -->
  <rect width="800" height="600" fill="url(#bgGrad)" />

  <!-- Yếu tố Minh Họa Trung Tâm -->
  
        <!-- Vầng trăng vàng rằm & Ngàn sao đêm -->
        <g transform="translate(400, 260)">
          <!-- Vầng trăng vàng to mỉm cười dịu dàng -->
          <circle cx="0" cy="0" r="110" fill="#ffbe0b" stroke="#fb5607" stroke-width="5"/>
          <circle cx="0" cy="0" r="95" fill="#ffd166"/>
          <!-- Đôi mắt nhắm ngủ hoặc nhìn thân thương -->
          <ellipse cx="-35" cy="-15" rx="8" ry="12" fill="#78350f"/>
          <ellipse cx="35" cy="-15" rx="8" ry="12" fill="#78350f"/>
          <ellipse cx="-45" cy="15" rx="16" ry="9" fill="#f28482" opacity="0.6"/>
          <ellipse cx="45" cy="15" rx="16" ry="9" fill="#f28482" opacity="0.6"/>
          <path d="M-25,25 Q0,48 25,25" stroke="#78350f" stroke-width="5" stroke-linecap="round" fill="none"/>
          <!-- Đám mây trắng trôi ngang trăng -->
          <g transform="translate(-140, 60)" opacity="0.85">
            <ellipse cx="40" cy="0" rx="55" ry="30" fill="#f8f9fa"/>
            <ellipse cx="90" cy="-15" rx="60" ry="38" fill="#f8f9fa"/>
            <ellipse cx="145" cy="0" rx="50" ry="28" fill="#f8f9fa"/>
          </g>
          <!-- Mái nhà ngói Nhật bên dưới -->
          <path d="M-380,300 L0,220 L380,300 L380,350 L-380,350 Z" fill="#2b2d42"/>
        </g>
      

  <!-- Lớp phủ chất liệu giấy mỹ thuật thủ công -->
  <rect width="800" height="600" fill="#ffffff" opacity="0.05" filter="url(#paperTexture)" pointer-events="none" />

  <!-- Khung viền tranh Ehon cổ điển -->
  <rect x="16" y="16" width="768" height="568" rx="20" fill="none" stroke="#415a77" stroke-width="4" opacity="0.8" />

  <!-- Bảng Thông Tin Tác Phẩm & Phân Cảnh Trang Nhã Ở Đáy Tranh -->
  <g transform="translate(400, 545)">
    <rect x="-320" y="-22" width="640" height="44" rx="22" fill="rgba(15, 23, 42, 0.85)" stroke="#334155" stroke-width="2" />
    <text x="0" y="4" font-size="16" font-weight="bold" fill="#f8fafc" text-anchor="middle" font-family="'Zen Maru Gothic', 'Hiragino Sans', 'Meiryo', sans-serif">
      はじめてのおるすばん (Lần Đầu Bé Tự Ở Nhà Một Mình) — Bìa Tác Phẩm (Cover)
    </text>
  </g>
</svg>